<?xml version="1.0" encoding="utf-8"?>
<svg id="master-artboard" viewBox="0 0 1400 980" version="1.1" xmlns="http://www.w3.org/2000/svg" x="0px" y="0px" style="enable-background:new 0 0 1400 980;" width="1400px" height="980px">

<g transform="matrix(2.2708950042724605, 0, 0, 2.2708950042724605, -171.25386047363276, 109.35897827148436)">
	<g>
		<path class="st0" d="M176.7,192.7c-3,0-5.4-2.2-5.4-4.9v-61.9c0-2.7,2.4-4.9,5.4-4.9l0,0c3,0,5.4,2.2,5.4,4.9v61.9&#10;&#9;&#9;&#9;C182.1,190.5,179.7,192.7,176.7,192.7L176.7,192.7z" style="fill: rgb(255, 222, 23);"/>
		<path class="st1" d="M182.1,126.3c0-3-2.4-5.4-5.4-5.4c-3,0-5.4,2.4-5.4,5.4v28.2h10.7V126.3z" style="fill: rgb(190, 30, 45);"/>
		<path class="st2" d="M180,191.6c-1.9-0.8-3.3-2.5-3.3-4.5v-61.9c0-1.6,0.8-3,2.1-3.9c-0.6-0.3-1.4-0.4-2.1-0.4&#10;&#9;&#9;&#9;c-3,0-5.4,2.2-5.4,4.9v61.9c0,2.7,2.4,4.9,5.4,4.9C178,192.7,179.1,192.3,180,191.6z" style="opacity: 0.4; fill: rgb(247, 148, 30);"/>
	</g>
	<path class="st3" d="M202.1,206.8c-3,0-5.4-2.4-5.4-5.4v-67.1c0-3,2.4-5.4,5.4-5.4l0,0c3,0,5.4,2.4,5.4,5.4v67.1&#10;&#9;&#9;C207.5,204.4,205.1,206.8,202.1,206.8L202.1,206.8z" style="fill: rgb(0, 189, 226);"/>
	<path class="st4" d="M207.5,134.3c0-3-2.4-5.4-5.4-5.4c-3,0-5.4,2.4-5.4,5.4v28.2h10.7V134.3z" style="fill: rgb(141, 198, 63);"/>
	<path class="st2" d="M205.4,205.6c-1.9-0.8-3.3-2.7-3.3-4.9v-67.1c0-1.7,0.8-3.2,2.1-4.2c-0.6-0.3-1.4-0.4-2.1-0.4&#10;&#9;&#9;c-3,0-5.4,2.4-5.4,5.4v67.1c0,3,2.4,5.4,5.4,5.4C203.4,206.8,204.5,206.3,205.4,205.6z" style="opacity: 0.4; fill: rgb(247, 148, 30);"/>
	<path class="st5" d="M228.5,229.1c-3,0-5.4-2.4-5.4-5.4v-67.1c0-3,2.4-5.4,5.4-5.4l0,0c3,0,5.4,2.4,5.4,5.4v67.1&#10;&#9;&#9;C233.8,226.7,231.4,229.1,228.5,229.1L228.5,229.1z" style="fill: rgb(241, 90, 41);"/>
	<path class="st3" d="M233.8,156.6c0-3-2.4-5.4-5.4-5.4c-3,0-5.4,2.4-5.4,5.4v28.2h10.7V156.6z" style="fill: rgb(0, 189, 226);"/>
	<path class="st2" d="M231.7,228c-1.9-0.8-3.3-2.7-3.3-4.9v-67.1c0-1.7,0.8-3.2,2.1-4.2c-0.6-0.3-1.4-0.4-2.1-0.4&#10;&#9;&#9;c-3,0-5.4,2.4-5.4,5.4v67.1c0,3,2.4,5.4,5.4,5.4C229.7,229.1,230.8,228.7,231.7,228z" style="opacity: 0.4; fill: rgb(247, 148, 30);"/>
	<path class="st1" d="M254.5,232.3c-3,0-5.4-2.4-5.4-5.4v-67.1c0-3,2.4-5.4,5.4-5.4l0,0c3,0,5.4,2.4,5.4,5.4v67.1&#10;&#9;&#9;C259.8,229.9,257.4,232.3,254.5,232.3L254.5,232.3z" style="fill: rgb(190, 30, 45);"/>
	<path class="st0" d="M259.8,159.8c0-3-2.4-5.4-5.4-5.4c-3,0-5.4,2.4-5.4,5.4v28.2h10.7V159.8z" style="fill: rgb(255, 222, 23);"/>
	<path class="st2" d="M257.7,231.1c-1.9-0.8-3.3-2.7-3.3-4.9v-67.1c0-1.7,0.8-3.2,2.1-4.2c-0.6-0.3-1.4-0.4-2.1-0.4&#10;&#9;&#9;c-3,0-5.4,2.4-5.4,5.4v67.1c0,3,2.4,5.4,5.4,5.4C255.7,232.3,256.8,231.8,257.7,231.1z" style="opacity: 0.4; fill: rgb(247, 148, 30);"/>
	<path class="st3" d="M76.3,124.9v-4.5c0,0,38.7-17.5,77.7,22s84.5,101,113,94.5s108.5-123,160.5-109.5s117,125.5,156,117.5&#10;&#9;&#9;S692,141.4,692,141.4l-22.5,0.5c0,0-46.5,80-98.5,96s-65.5-20.5-89.5-45.5s-71.7-65-97.4-67c-25.6-2-49.6,18-72.6,45.5&#10;&#9;&#9;s-63,71-86,66.5s-50.5-47-78-70.5S91,122.4,76.3,124.9z" style="fill: rgb(0, 189, 226);"/>
	<path class="st6" d="M76.3,201.9c0,0,68.4-75.3,98.4-81.3s56.4,3.7,98,40.7c41.6,36.9,71.3,100.7,117.3,69.3&#10;&#9;&#9;s106.7-113.3,148.7-105.3s126.7,106,150.7,107.3c0,0-18,14.7-32.7,10s-119.3-120-168-111.3c-48.7,8.7-67.3,46.7-92.7,70&#10;&#9;&#9;s-54,53.9-86.7,30.7C276.6,208.6,202,112.3,154,123.9c-48,11.6-77.7,51.3-77.7,51.3V201.9z" style="fill: rgb(243, 112, 42);"/>
	<path class="st3" d="M225.5,237.4c5.9,1.2,13-0.9,20.7-5v0l0,0c-27.2-14.8-61.7-59.1-92.2-90c-39-39.5-77.7-22-77.7-22v4.5&#10;&#9;&#9;c14.8-2.5,43.7,18.5,71.2,42S202.5,232.9,225.5,237.4z" style="fill: rgb(0, 189, 226);"/>
	<g>
		<path class="st5" d="M322.5,234.2c-3,0-5.4-2.2-5.4-4.9v-61.9c0-2.7,2.4-4.9,5.4-4.9l0,0c3,0,5.4,2.2,5.4,4.9v61.9&#10;&#9;&#9;&#9;C327.9,232,325.5,234.2,322.5,234.2L322.5,234.2z" style="fill: rgb(241, 90, 41);"/>
		<path class="st0" d="M327.9,167.4c0-2.7-2.4-4.9-5.4-4.9c-3,0-5.4,2.2-5.4,4.9v26h10.7V167.4z" style="fill: rgb(255, 222, 23);"/>
		<path class="st2" d="M325.8,233.2c-1.9-0.8-3.3-2.5-3.3-4.5v-61.9c0-1.6,0.8-3,2.1-3.9c-0.6-0.3-1.4-0.4-2.1-0.4&#10;&#9;&#9;&#9;c-3,0-5.4,2.2-5.4,4.9v61.9c0,2.7,2.4,4.9,5.4,4.9C323.7,234.2,324.9,233.8,325.8,233.2z" style="opacity: 0.4; fill: rgb(247, 148, 30);"/>
	</g>
	<g>
		<path class="st5" d="M420.1,200.7c-3,0-5.4-2.2-5.4-4.9v-61.9c0-2.7,2.4-4.9,5.4-4.9l0,0c3,0,5.4,2.2,5.4,4.9v61.9&#10;&#9;&#9;&#9;C425.5,198.5,423.1,200.7,420.1,200.7L420.1,200.7z" style="fill: rgb(241, 90, 41);"/>
		<path class="st0" d="M425.5,133.9c0-2.7-2.4-4.9-5.4-4.9c-3,0-5.4,2.2-5.4,4.9v26h10.7V133.9z" style="fill: rgb(255, 222, 23);"/>
		<path class="st2" d="M423.4,199.6c-1.9-0.8-3.3-2.5-3.3-4.5v-61.9c0-1.6,0.8-3,2.1-3.9c-0.6-0.3-1.4-0.4-2.1-0.4&#10;&#9;&#9;&#9;c-3,0-5.4,2.2-5.4,4.9v61.9c0,2.7,2.4,4.9,5.4,4.9C421.4,200.7,422.5,200.3,423.4,199.6z" style="opacity: 0.4; fill: rgb(247, 148, 30);"/>
	</g>
	<g>
		<path class="st5" d="M586.1,236.6c-3,0-5.4-2.2-5.4-4.9v-61.9c0-2.7,2.4-4.9,5.4-4.9l0,0c3,0,5.4,2.2,5.4,4.9v61.9&#10;&#9;&#9;&#9;C591.4,234.4,589,236.6,586.1,236.6L586.1,236.6z" style="fill: rgb(241, 90, 41);"/>
		<path class="st0" d="M591.4,169.7c0-2.7-2.4-4.9-5.4-4.9s-5.4,2.2-5.4,4.9v26h10.7V169.7z" style="fill: rgb(255, 222, 23);"/>
		<path class="st2" d="M589.3,235.5c-1.9-0.8-3.3-2.5-3.3-4.5v-61.9c0-1.6,0.8-3,2.1-3.9c-0.6-0.3-1.4-0.4-2.1-0.4&#10;&#9;&#9;&#9;c-3,0-5.4,2.2-5.4,4.9v61.9c0,2.7,2.4,4.9,5.4,4.9C587.3,236.6,588.4,236.2,589.3,235.5z" style="opacity: 0.4; fill: rgb(247, 148, 30);"/>
	</g>
	<g>
		<path class="st3" d="M359.8,237c-3,0-5.4-2.2-5.4-4.9v-85.9c0-2.7,2.4-4.9,5.4-4.9l0,0c3,0,5.4,2.2,5.4,4.9v85.9&#10;&#9;&#9;&#9;C365.1,234.8,362.7,237,359.8,237L359.8,237z" style="fill: rgb(0, 189, 226);"/>
		<path class="st1" d="M365.1,146.1c0-2.7-2.4-4.9-5.4-4.9c-3,0-5.4,2.2-5.4,4.9v47.2h10.7V146.1z" style="fill: rgb(190, 30, 45);"/>
		<path class="st2" d="M363,236c-1.9-0.8-3.3-2.5-3.3-4.5v-85.9c0-1.6,0.8-3,2.1-3.9c-0.6-0.3-1.4-0.4-2.1-0.4c-3,0-5.4,2.2-5.4,4.9&#10;&#9;&#9;&#9;v85.9c0,2.7,2.4,4.9,5.4,4.9C361,237,362.1,236.6,363,236z" style="opacity: 0.4; fill: rgb(247, 148, 30);"/>
	</g>
	<g>
		<path class="st3" d="M524.2,225.7c-3,0-5.4-2.2-5.4-4.9v-85.9c0-2.7,2.4-4.9,5.4-4.9l0,0c3,0,5.4,2.2,5.4,4.9v85.9&#10;&#9;&#9;&#9;C529.5,223.5,527.1,225.7,524.2,225.7L524.2,225.7z" style="fill: rgb(0, 189, 226);"/>
		<path class="st6" d="M529.5,134.8c0-2.7-2.4-4.9-5.4-4.9c-3,0-5.4,2.2-5.4,4.9V182h10.7V134.8z" style="fill: rgb(243, 112, 42);"/>
		<path class="st2" d="M527.4,224.6c-1.9-0.8-3.3-2.5-3.3-4.5v-85.9c0-1.6,0.8-3,2.1-3.9c-0.6-0.3-1.4-0.4-2.1-0.4&#10;&#9;&#9;&#9;c-3,0-5.4,2.2-5.4,4.9v85.9c0,2.7,2.4,4.9,5.4,4.9C525.4,225.7,526.5,225.3,527.4,224.6z" style="opacity: 0.4; fill: rgb(247, 148, 30);"/>
	</g>
	<g>
		<path class="st0" d="M389.5,225.8c-3,0-5.4-2.2-5.4-4.9v-85.9c0-2.7,2.4-4.9,5.4-4.9l0,0c3,0,5.4,2.2,5.4,4.9v85.9&#10;&#9;&#9;&#9;C394.8,223.6,392.4,225.8,389.5,225.8L389.5,225.8z" style="fill: rgb(255, 222, 23);"/>
		<path class="st4" d="M394.8,134.9c0-2.7-2.4-4.9-5.4-4.9c-3,0-5.4,2.2-5.4,4.9v47.2h10.7V134.9z" style="fill: rgb(141, 198, 63);"/>
		<path class="st2" d="M392.7,224.7c-1.9-0.8-3.3-2.5-3.3-4.5v-85.9c0-1.6,0.8-3,2.1-3.9c-0.6-0.3-1.4-0.4-2.1-0.4&#10;&#9;&#9;&#9;c-3,0-5.4,2.2-5.4,4.9v85.9c0,2.7,2.4,4.9,5.4,4.9C390.7,225.8,391.8,225.4,392.7,224.7z" style="opacity: 0.4; fill: rgb(247, 148, 30);"/>
	</g>
	<g>
		<path class="st0" d="M552.6,241.2c-3,0-5.4-2.2-5.4-4.9v-85.9c0-2.7,2.4-4.9,5.4-4.9l0,0c3,0,5.4,2.2,5.4,4.9v85.9&#10;&#9;&#9;&#9;C557.9,239,555.5,241.2,552.6,241.2L552.6,241.2z" style="fill: rgb(255, 222, 23);"/>
		<path class="st4" d="M557.9,150.4c0-2.7-2.4-4.9-5.4-4.9c-3,0-5.4,2.2-5.4,4.9v47.2h10.7V150.4z" style="fill: rgb(141, 198, 63);"/>
		<path class="st2" d="M555.8,240.2c-1.9-0.8-3.3-2.5-3.3-4.5v-85.9c0-1.6,0.8-3,2.1-3.9c-0.6-0.3-1.4-0.4-2.1-0.4&#10;&#9;&#9;&#9;c-3,0-5.4,2.2-5.4,4.9v85.9c0,2.7,2.4,4.9,5.4,4.9C553.8,241.2,554.9,240.8,555.8,240.2z" style="opacity: 0.4; fill: rgb(247, 148, 30);"/>
	</g>
	<g>
		<path class="st6" d="M272.6,161.2c-41.6-36.9-68-46.7-98-40.7c-2.4,0.5-5,1.4-7.7,2.6c0,0,0,0,0,0&#10;&#9;&#9;&#9;c47.6,5.2,112.5,87.5,142.4,108.7c14.8,10.5,28.8,10,42,4.1C324.5,225.2,301.4,186.8,272.6,161.2z" style="fill: rgb(243, 112, 42);"/>
		<path d="M 351.299988 236 H 351.299988 V 236 H 351.299988 V 236 Z" class="st6" style="fill: rgb(243, 112, 42);"/>
	</g>
	<g>
		<path class="st0" d="M488,135.3c-3,0-5.4,1.7-5.4,3.8v47.8c0,2.1,2.4,3.8,5.4,3.8l0,0c3,0,5.4-1.7,5.4-3.8v-47.8&#10;&#9;&#9;&#9;C493.3,137,490.9,135.3,488,135.3L488,135.3z" style="fill: rgb(255, 222, 23);"/>
		<path class="st1" d="M493.3,186.6c0,2.3-2.4,4.1-5.4,4.1c-3,0-5.4-1.9-5.4-4.1v-21.7h10.7V186.6z" style="fill: rgb(190, 30, 45);"/>
		<path class="st2" d="M491.2,136.1c-1.9,0.6-3.3,1.9-3.3,3.5v47.8c0,1.2,0.8,2.3,2.1,3c-0.6,0.2-1.4,0.3-2.1,0.3&#10;&#9;&#9;&#9;c-3,0-5.4-1.7-5.4-3.8v-47.8c0-2.1,2.4-3.8,5.4-3.8C489.2,135.3,490.3,135.6,491.2,136.1z" style="opacity: 0.4; fill: rgb(247, 148, 30);"/>
	</g>
	<g>
		<path class="st3" d="M481.5,192.4c22.6,23.6,35.9,57.3,80.9,47.7h0l0,0c-38.9-21.3-91.4-101.4-134.9-112.7&#10;&#9;&#9;&#9;c-8.4-2.2-17.6-0.9-27.2,2.7C426.6,141.6,461.9,172,481.5,192.4z" style="fill: rgb(0, 189, 226);"/>
		<path d="M 400.29998779296875 130 L 400.29998779296875 130 L 400.29998779296875 130 Z" class="st3" style="fill: rgb(0, 189, 226);"/>
	</g>
	<path class="st6" d="M506.6,132.5c52.7,14.1,137,105.8,150.1,110c14.7,4.7,32.7-10,32.7-10c-24-1.3-108.7-99.3-150.7-107.3&#10;&#9;&#9;C528.8,123.3,518,126.4,506.6,132.5L506.6,132.5z" style="fill: rgb(243, 112, 42);"/>
</g>



























</svg>